<svg id="Layer_1" data-name="Layer 1" xmlns="http://www.w3.org/2000/svg" viewBox="0 0 219.71 50.62"><defs><style>.cls-1{fill:#fff;}.cls-2{fill:#f5d202;}.cls-3{fill:#3562a4;}.cls-4{fill:#4b73ab;}.cls-5{fill:#5e82b6;}.cls-6{fill:#9ab0d1;}.cls-7{fill:#b0bfd8;}.cls-8{fill:#7391bf;}.cls-9{fill:#87a0c7;}.cls-10{fill:#c2d1e2;}</style></defs><title>ABTL_logo_szines</title><path class="cls-1" d="M59.47,23.86V8.4a23.83,23.83,0,0,0-2.4,0V23.86ZM68.11,5.59V8.37h-4l.07.17a5.7,5.7,0,0,1,.61,2c0,.15,0,.3,0,.45v30.6H68c0,1.29,0,1.32,0,2.72H59.49V26.8a19.28,19.28,0,0,0-2.41,0V44.3c-4.4,0-4.4,0-8.54,0,0-1.06,0-1.59,0-2.71h3.16V11.05a5.5,5.5,0,0,1,4.25-5.32,5.86,5.86,0,0,1,1.26-.14H68.11Z"/><path class="cls-1" d="M78.75,26.76V41.6l2.38,0V26.76Zm0-2.88h2.38V8.33H78.75Zm-5.4,17.77V8.33H70.21c0-1.15,0-2,0-2.74h10.9A5.47,5.47,0,0,1,86.42,10a6.24,6.24,0,0,1,.1,1.06c0,3,0,5.93,0,8.89a5.47,5.47,0,0,1-4,5.27c-.27.08-.55.13-.84.2l.19,0a5.49,5.49,0,0,1,4.51,4.33,5.17,5.17,0,0,1,.11,1c0,2.67,0,5.35,0,8a5.45,5.45,0,0,1-5.46,5.48H70.18V41.65Z"/><path class="cls-1" d="M94.1,8.38H90.88V5.63c.16,0,11.46,0,11.72,0V8.37H99.47V38.9a5.5,5.5,0,0,1-4.25,5.31,4.5,4.5,0,0,1-1.11.13Z"/><path class="cls-1" d="M112.62,41.56h3.13v2.77h-8.48c0-.16,0-38.48,0-38.73a3.27,3.27,0,0,1,1,.11A5.42,5.42,0,0,1,112.5,10a4.77,4.77,0,0,1,.11,1.06q0,15.1,0,30.21Z"/><rect class="cls-2" x="126.35" y="5.58" width="1.87" height="38.75"/><path class="cls-1" d="M144.05,9.25h1.43l-.72-1.88Zm0-4.14.87-2.05h1.45l-1,2.05ZM141.32,12l2.46-6.4h2l2.45,6.4h-2l-.53-1.36H143.8L143.27,12Z"/><path class="cls-1" d="M150.36,12.05a1.66,1.66,0,0,1-1.23-.37,1.54,1.54,0,0,1-.37-1.15V5.25h1.87v5.07a.36.36,0,0,0,.09.29.43.43,0,0,0,.28.08l.25,0,.23-.06v1.24a2.57,2.57,0,0,1-.5.15,3.44,3.44,0,0,1-.62.05"/><path class="cls-1" d="M153.65,12.05a1.66,1.66,0,0,1-1.23-.37,1.54,1.54,0,0,1-.37-1.15V5.25h1.87v5.07a.36.36,0,0,0,.09.29.43.43,0,0,0,.28.08l.25,0,.23-.06v1.24a2.57,2.57,0,0,1-.5.15,3.44,3.44,0,0,1-.62.05"/><path class="cls-1" d="M157.55,11a1.27,1.27,0,0,0,.54-.1,1.54,1.54,0,0,0,.37-.27V10h-.9c-.42,0-.62.16-.62.49s.2.47.61.47m-.64,1.1a2.27,2.27,0,0,1-.83-.16,1.31,1.31,0,0,1-.61-.5,1.49,1.49,0,0,1-.23-.85,1.39,1.39,0,0,1,.5-1.16,2.28,2.28,0,0,1,1.5-.41h1.22V8.88a.44.44,0,0,0-.23-.41,1.7,1.7,0,0,0-.8-.13,5.21,5.21,0,0,0-1.61.25V7.46a5.67,5.67,0,0,1,.89-.23,6.59,6.59,0,0,1,1.09-.09,3,3,0,0,1,1.78.46,1.62,1.62,0,0,1,.66,1.45V12h-1.63l-.09-.38a1.86,1.86,0,0,1-.64.35,3.35,3.35,0,0,1-1,.13"/><path class="cls-1" d="M161.21,12V7.24h1.73l.05.38a3.19,3.19,0,0,1,.69-.35,2.55,2.55,0,0,1,.84-.13,1.57,1.57,0,0,1,.72.13,1,1,0,0,1,.42.38,2.45,2.45,0,0,1,.72-.37,2.68,2.68,0,0,1,1-.14,1.54,1.54,0,0,1,1.21.43,1.93,1.93,0,0,1,.39,1.32V12h-1.84V9.11a.68.68,0,0,0-.13-.46.58.58,0,0,0-.43-.13.81.81,0,0,0-.64.28l0,.24V12h-1.72V9.08a.69.69,0,0,0-.11-.43.43.43,0,0,0-.37-.13.71.71,0,0,0-.37.1,1.28,1.28,0,0,0-.32.24V12Z"/><path class="cls-1" d="M172.51,10.7a.72.72,0,0,0,.63-.27,1.45,1.45,0,0,0,.2-.86,1.29,1.29,0,0,0-.21-.84.76.76,0,0,0-.62-.24,1,1,0,0,0-.73.25v1.67a1,1,0,0,0,.73.29m.54,1.35a2.17,2.17,0,0,1-.8-.13,2.13,2.13,0,0,1-.63-.34l-.09.37h-1.62V5.25h1.87V7.41a1.68,1.68,0,0,1,.56-.2,2.81,2.81,0,0,1,.65-.07,2.34,2.34,0,0,1,1.65.56,2.43,2.43,0,0,1,.6,1.85,2.59,2.59,0,0,1-.59,1.88,2.13,2.13,0,0,1-1.6.62"/><path class="cls-1" d="M176.34,5.26h2V6.61h-2Zm.15,6.69V8.6h-.69L176,7.24h2.4V12Z"/><polygon class="cls-1" points="179.2 11.95 179.2 10.93 181.18 8.67 179.27 8.67 179.27 7.24 183.56 7.24 183.56 8.29 181.63 10.52 183.62 10.52 183.62 11.95 179.2 11.95"/><path class="cls-1" d="M186.5,12.05a1.74,1.74,0,0,1-1.37-.48,1.85,1.85,0,0,1-.43-1.29V8.62h-.61V7.24h.61v-1l1.87-.44V7.24h1.08l-.07,1.38h-1v1.52a.51.51,0,0,0,.15.42.67.67,0,0,0,.46.13,2,2,0,0,0,.58-.1v1.24a3.19,3.19,0,0,1-1.26.22"/><path class="cls-1" d="M191,10.69a.78.78,0,0,0,.66-.26,1.35,1.35,0,0,0,.21-.84,1.35,1.35,0,0,0-.21-.83A.78.78,0,0,0,191,8.5a.77.77,0,0,0-.64.26,1.43,1.43,0,0,0-.2.83,1.42,1.42,0,0,0,.2.84.77.77,0,0,0,.64.26m0,1.36a3,3,0,0,1-2.08-.63,2.36,2.36,0,0,1-.67-1.83,2.38,2.38,0,0,1,.68-1.82A3,3,0,0,1,191,7.14a3,3,0,0,1,2.1.63,2.38,2.38,0,0,1,.68,1.82,2.37,2.37,0,0,1-.68,1.83,3,3,0,0,1-2.1.63"/><path class="cls-1" d="M194.53,12V7.24h1.75l.05.36a2.78,2.78,0,0,1,.71-.32,3,3,0,0,1,1-.14,1.65,1.65,0,0,1,1.29.44,1.88,1.88,0,0,1,.41,1.35v3h-1.87V9.12a.59.59,0,0,0-.14-.46.67.67,0,0,0-.48-.14,1,1,0,0,0-.44.1,1.19,1.19,0,0,0-.36.24V12Z"/><path class="cls-1" d="M202.53,12.05a6.93,6.93,0,0,1-1.14-.09,3.41,3.41,0,0,1-.84-.21V10.41a3.89,3.89,0,0,0,.83.25,4.62,4.62,0,0,0,.82.09l.54,0c.13,0,.19-.07.19-.17s-.11-.2-.33-.26l-.82-.26a2.5,2.5,0,0,1-1-.54,1.18,1.18,0,0,1-.32-.89,1.26,1.26,0,0,1,.56-1.09,3.18,3.18,0,0,1,1.75-.38,6.13,6.13,0,0,1,.94.07,4.23,4.23,0,0,1,.77.16V8.68a2.72,2.72,0,0,0-.65-.19,3.93,3.93,0,0,0-.65-.06,4.73,4.73,0,0,0-.56,0c-.17,0-.25.08-.25.17s.1.18.28.23.45.12.76.22a3.07,3.07,0,0,1,.84.35,1,1,0,0,1,.43.45,1.63,1.63,0,0,1,.13.67,1.26,1.26,0,0,1-.59,1.11,3.08,3.08,0,0,1-1.72.39"/><path class="cls-1" d="M207.32,6.76l.87-2h1.45l-.95,2.05Zm.41,4.2a1.31,1.31,0,0,0,.55-.11,1.77,1.77,0,0,0,.37-.27V10h-.91c-.41,0-.61.16-.61.49s.2.48.6.48m-.63,1.09a2,2,0,0,1-.83-.16,1.38,1.38,0,0,1-.62-.5,1.49,1.49,0,0,1-.22-.85,1.41,1.41,0,0,1,.49-1.16A2.37,2.37,0,0,1,207.43,9h1.22V8.88a.44.44,0,0,0-.23-.41,1.72,1.72,0,0,0-.81-.13,5.25,5.25,0,0,0-1.61.25V7.47a4.8,4.8,0,0,1,.9-.24A6.59,6.59,0,0,1,208,7.14a3,3,0,0,1,1.78.46,1.62,1.62,0,0,1,.66,1.45V12H208.8l-.09-.38a1.86,1.86,0,0,1-.64.35,3.08,3.08,0,0,1-1,.13"/><path class="cls-1" d="M213.64,9.47a1,1,0,0,0,.61-.15.62.62,0,0,0,.17-.49.7.7,0,0,0-.17-.51,1,1,0,0,0-.61-.16.87.87,0,0,0-.59.16.63.63,0,0,0-.19.51.61.61,0,0,0,.18.49.9.9,0,0,0,.6.15m-.16,4.23-.76,0a6.27,6.27,0,0,1-.77-.08,4.5,4.5,0,0,1-.6-.14V12.26a4.34,4.34,0,0,0,.62.15c.24,0,.48.07.73.09l.67,0a4.48,4.48,0,0,0,.83-.06c.2,0,.3-.1.3-.19l-.1-.16a1.47,1.47,0,0,0-.37,0h-1.24a2.26,2.26,0,0,1-1.12-.23.76.76,0,0,1-.4-.71.94.94,0,0,1,.73-.91,1.49,1.49,0,0,1-.6-.53,1.6,1.6,0,0,1-.19-.8,1.5,1.5,0,0,1,.63-1.34,3.09,3.09,0,0,1,1.79-.43l.56,0,.44.07h1.85l0,1.13h-.62a.87.87,0,0,1,.18.56,1.59,1.59,0,0,1-.43,1.15,1.8,1.8,0,0,1-1.32.42l-.28,0-.28,0a1.34,1.34,0,0,0-.38.08.21.21,0,0,0-.16.2l.09.13a.82.82,0,0,0,.25,0h1.08a1.81,1.81,0,0,1,1.15.33,1.3,1.3,0,0,1-.23,2.08,4.13,4.13,0,0,1-2,.38"/><path class="cls-1" d="M217.15,7.24,217,8.6h.68V12h1.87V7.24Zm.38-.63h2V5.26h-2Z"/><path class="cls-1" d="M143.62,22.84a6.77,6.77,0,0,1-1.22-.1,4,4,0,0,1-1-.3V20.9a5.33,5.33,0,0,0,1,.34,4.19,4.19,0,0,0,1,.13,2.79,2.79,0,0,0,.75-.08.37.37,0,0,0,.26-.39.37.37,0,0,0-.15-.32,1.32,1.32,0,0,0-.45-.23l-.79-.24a4.09,4.09,0,0,1-1-.46,1.49,1.49,0,0,1-.54-.61,2.08,2.08,0,0,1-.17-.87,1.68,1.68,0,0,1,.68-1.44,3.32,3.32,0,0,1,2-.49,7,7,0,0,1,1.09.09,7.61,7.61,0,0,1,.91.2v1.55a4.16,4.16,0,0,0-.9-.27,4.61,4.61,0,0,0-.8-.08,3.3,3.3,0,0,0-.75.07.35.35,0,0,0-.31.36.38.38,0,0,0,.27.36,5.73,5.73,0,0,0,.94.29,3.61,3.61,0,0,1,1.19.51,1.54,1.54,0,0,1,.57.69,2.72,2.72,0,0,1,.15.89,1.7,1.7,0,0,1-.68,1.41,3.31,3.31,0,0,1-2,.53"/><polygon class="cls-1" points="146.89 22.74 146.89 21.72 148.87 19.46 146.96 19.46 146.96 18.03 151.24 18.03 151.24 19.08 149.32 21.31 151.31 21.31 151.31 22.74 146.89 22.74"/><path class="cls-1" d="M154.62,21.48a.78.78,0,0,0,.66-.26,1.31,1.31,0,0,0,.21-.83,1.31,1.31,0,0,0-.21-.83.93.93,0,0,0-1.31,0,1.39,1.39,0,0,0-.19.83,1.39,1.39,0,0,0,.19.83.79.79,0,0,0,.65.26m0,1.36a3,3,0,0,1-2.08-.62,2.38,2.38,0,0,1-.67-1.83,2.38,2.38,0,0,1,.67-1.83,3.77,3.77,0,0,1,4.17,0,2.35,2.35,0,0,1,.68,1.83,2.38,2.38,0,0,1-.67,1.83,3,3,0,0,1-2.1.62"/><path class="cls-1" d="M159.78,22.84a1.7,1.7,0,0,1-1.24-.37,1.59,1.59,0,0,1-.36-1.15V16H160v5.07a.36.36,0,0,0,.09.29.44.44,0,0,0,.28.08l.25,0,.24-.06v1.24a2.57,2.57,0,0,1-.5.15,3.53,3.53,0,0,1-.62.05"/><path class="cls-1" d="M163.76,20.27a.94.94,0,0,0,.61-.15.66.66,0,0,0,.17-.5.7.7,0,0,0-.17-.51,1.27,1.27,0,0,0-1.2,0,.8.8,0,0,0,0,1,.88.88,0,0,0,.6.16m-.16,4.22-.75,0c-.27,0-.53,0-.77-.09a3.34,3.34,0,0,1-.6-.14V23.05a3.76,3.76,0,0,0,.62.15q.35.06.72.09l.67,0a4.41,4.41,0,0,0,.83-.06c.21,0,.31-.1.31-.19l-.1-.15a1.13,1.13,0,0,0-.38,0h-1.24a2.26,2.26,0,0,1-1.12-.23.77.77,0,0,1-.39-.7.94.94,0,0,1,.72-.92,1.38,1.38,0,0,1-.59-.52,1.57,1.57,0,0,1-.19-.81,1.51,1.51,0,0,1,.62-1.34,3.09,3.09,0,0,1,1.79-.43,3.87,3.87,0,0,1,.56,0l.45.06h1.85l0,1.13h-.63a.89.89,0,0,1,.18.56,1.56,1.56,0,0,1-.42,1.15,1.85,1.85,0,0,1-1.33.42h-.28l-.28,0a1.42,1.42,0,0,0-.38.08.21.21,0,0,0-.15.2l.09.13a.52.52,0,0,0,.24,0h1.09a1.74,1.74,0,0,1,1.14.34,1.18,1.18,0,0,1,.42,1,1.21,1.21,0,0,1-.65,1.08,4.13,4.13,0,0,1-2,.38"/><path class="cls-1" d="M168.83,17.55l.88-2.05h1.45l-1,2.05Zm.42,4.2a1.27,1.27,0,0,0,.54-.11,1.14,1.14,0,0,0,.37-.27v-.59h-.9c-.41,0-.62.17-.62.49s.2.48.61.48m-.64,1.09a2.08,2.08,0,0,1-.83-.16,1.3,1.3,0,0,1-.61-.5,1.49,1.49,0,0,1-.23-.85,1.43,1.43,0,0,1,.5-1.16,2.33,2.33,0,0,1,1.5-.41h1.22v-.09a.44.44,0,0,0-.22-.41,1.92,1.92,0,0,0-.81-.13,5.52,5.52,0,0,0-1.61.25V18.26a5.57,5.57,0,0,1,.89-.24,6.71,6.71,0,0,1,1.1-.09,3,3,0,0,1,1.78.46,1.65,1.65,0,0,1,.65,1.45v2.9h-1.63l-.09-.38a1.64,1.64,0,0,1-.64.35,3,3,0,0,1-1,.13"/><path class="cls-1" d="M174.49,22.84a1.69,1.69,0,0,1-1.23-.37,1.59,1.59,0,0,1-.37-1.15V16h1.87v5.07a.36.36,0,0,0,.09.29.44.44,0,0,0,.28.08l.25,0,.24-.06v1.24a2.57,2.57,0,0,1-.5.15,3.56,3.56,0,0,1-.63.05"/><path class="cls-1" d="M178.39,21.75a1.27,1.27,0,0,0,.54-.11,1.19,1.19,0,0,0,.38-.27v-.59h-.91c-.41,0-.61.17-.61.49s.2.48.6.48m-.63,1.09a2,2,0,0,1-.83-.16,1.32,1.32,0,0,1-.62-.5,1.47,1.47,0,0,1-.22-.85,1.43,1.43,0,0,1,.49-1.16,2.33,2.33,0,0,1,1.5-.41h1.23v-.09a.45.45,0,0,0-.23-.41,1.86,1.86,0,0,0-.81-.13,5.57,5.57,0,0,0-1.61.25V18.26a4.87,4.87,0,0,1,.9-.23,5.6,5.6,0,0,1,1.09-.1,3,3,0,0,1,1.78.46,1.64,1.64,0,0,1,.66,1.45v2.9h-1.63l-.09-.38a1.68,1.68,0,0,1-.65.35,3,3,0,0,1-1,.13"/><path class="cls-1" d="M184.06,22.84a1.75,1.75,0,0,1-1.37-.48,1.89,1.89,0,0,1-.43-1.29V19.41h-.61V18h.61v-1l1.87-.45V18h1.09l-.07,1.38h-1v1.52a.51.51,0,0,0,.15.42.67.67,0,0,0,.46.13,1.69,1.69,0,0,0,.58-.1v1.24a3.19,3.19,0,0,1-1.26.22"/><path class="cls-1" d="M188.53,21.48a.81.81,0,0,0,.66-.26,1.39,1.39,0,0,0,.2-.83,1.39,1.39,0,0,0-.2-.83.78.78,0,0,0-.66-.27.75.75,0,0,0-.65.27,1.39,1.39,0,0,0-.2.83,1.39,1.39,0,0,0,.2.83.77.77,0,0,0,.65.26m0,1.36a3,3,0,0,1-2.09-.62,2.42,2.42,0,0,1-.67-1.83,2.38,2.38,0,0,1,.68-1.83,3,3,0,0,1,2.08-.63,3,3,0,0,1,2.09.63,2.38,2.38,0,0,1,.68,1.83,2.38,2.38,0,0,1-.68,1.83,3,3,0,0,1-2.09.62"/><polygon class="cls-1" points="192.09 22.74 192.09 16.04 193.96 16.04 193.96 19.35 195.28 18.03 197.39 18.03 195.51 20.02 197.5 22.74 195.51 22.74 194.35 20.99 193.96 21.38 193.96 22.74 192.09 22.74"/><polygon class="cls-1" points="142.93 33.53 142.93 28.53 141.13 28.53 141.13 27.13 146.59 27.13 146.59 28.53 144.79 28.53 144.79 33.53 142.93 33.53"/><path class="cls-1" d="M149.75,26.88h1.3v1.2h-1.3Zm-.44,5.39A.79.79,0,0,0,150,32a1.82,1.82,0,0,0,0-1.66.79.79,0,0,0-.67-.27.74.74,0,0,0-.64.27,1.82,1.82,0,0,0,0,1.66.74.74,0,0,0,.64.26m-1.7-5.39h1.3v1.2h-1.3Zm1.7,6.75a3,3,0,0,1-2.08-.62,2.82,2.82,0,0,1,0-3.66,3,3,0,0,1,2.07-.63,3,3,0,0,1,2.1.63,2.8,2.8,0,0,1,0,3.66,3,3,0,0,1-2.1.62"/><path class="cls-1" d="M152.88,33.53V28.82h1.8l0,.38a4.12,4.12,0,0,1,.74-.31,4.08,4.08,0,0,1,.9-.17v1.39l-.56.07-.59.13a3.2,3.2,0,0,0-.47.16v3.06Z"/><path class="cls-1" d="M159.2,33.63a1.74,1.74,0,0,1-1.37-.47,1.85,1.85,0,0,1-.43-1.29V30.2h-.62V28.82h.62v-1l1.87-.45v1.41h1.08l-.07,1.38h-1v1.53a.52.52,0,0,0,.15.42.72.72,0,0,0,.46.12,1.69,1.69,0,0,0,.58-.1v1.25a3.39,3.39,0,0,1-1.26.21"/><path class="cls-1" d="M162.81,28.35l.87-2.05h1.46l-1,2.05Zm-.19,2.37h1.66v-.17a.63.63,0,0,0-.17-.45.84.84,0,0,0-.61-.18.92.92,0,0,0-.69.2.9.9,0,0,0-.19.6m1.07,2.91a3.64,3.64,0,0,1-1.45-.27,2.16,2.16,0,0,1-1-.82,2.46,2.46,0,0,1-.35-1.35,2.28,2.28,0,0,1,2.54-2.47,2.6,2.6,0,0,1,1.8.59,2.05,2.05,0,0,1,.65,1.6v.82h-3.27a.86.86,0,0,0,.51.54,2.59,2.59,0,0,0,1,.16,4.54,4.54,0,0,0,.82-.07,3,3,0,0,0,.66-.18v1.13a4.79,4.79,0,0,1-1.94.32"/><path class="cls-1" d="M166.72,33.53V28.82h1.75l.05.36a2.8,2.8,0,0,1,.71-.32,3.19,3.19,0,0,1,.94-.14,1.71,1.71,0,0,1,1.3.44,1.93,1.93,0,0,1,.4,1.35v3H170V30.7a.67.67,0,0,0-.14-.46.72.72,0,0,0-.49-.13,1.14,1.14,0,0,0-.43.09,1.48,1.48,0,0,0-.37.24v3.09Z"/><path class="cls-1" d="M174.34,30.72H176v-.17a.6.6,0,0,0-.18-.45.84.84,0,0,0-.61-.18.91.91,0,0,0-.68.2.85.85,0,0,0-.19.6m1.07,2.91a3.69,3.69,0,0,1-1.46-.27,2.08,2.08,0,0,1-1-.82,2.38,2.38,0,0,1-.35-1.35,2.27,2.27,0,0,1,2.53-2.47,2.58,2.58,0,0,1,1.8.59,2,2,0,0,1,.66,1.6v.83h-3.27a.82.82,0,0,0,.5.53,2.61,2.61,0,0,0,1,.16,4.62,4.62,0,0,0,.82-.07,3.4,3.4,0,0,0,.66-.18v1.13a4.83,4.83,0,0,1-1.94.32"/><path class="cls-1" d="M180.49,33.63a1.74,1.74,0,0,1-1.37-.47,1.85,1.85,0,0,1-.43-1.29V30.2h-.62V28.82h.62v-1l1.87-.45v1.41h1.08l-.07,1.38h-1v1.53a.52.52,0,0,0,.15.42.71.71,0,0,0,.45.12,1.74,1.74,0,0,0,.59-.1v1.25a3.39,3.39,0,0,1-1.26.21"/><path class="cls-1" d="M182.69,26.85h2V28.2h-2Zm.15,6.69V30.18h-.68l.16-1.36h2.39v4.72Z"/><polygon class="cls-1" points="141.52 44.33 141.52 37.92 143.39 37.92 143.39 42.9 146.28 42.9 146.28 44.33 141.52 44.33"/><path class="cls-1" d="M148.44,41.51h1.66v-.16a.65.65,0,0,0-.17-.46.84.84,0,0,0-.61-.18.92.92,0,0,0-.68.2.85.85,0,0,0-.2.6m1.07,2.92a3.47,3.47,0,0,1-1.45-.28,2.16,2.16,0,0,1-1-.82,2.42,2.42,0,0,1,2.19-3.81,2.58,2.58,0,0,1,1.8.58,2.06,2.06,0,0,1,.65,1.6v.83h-3.27a.86.86,0,0,0,.51.53,2.59,2.59,0,0,0,1,.16,4.54,4.54,0,0,0,.82-.07,3,3,0,0,0,.66-.18V44.1a4.61,4.61,0,0,1-1.94.33"/><polygon class="cls-1" points="153.89 44.33 152.03 39.62 153.98 39.62 154.88 42.38 155.77 39.62 157.72 39.62 155.86 44.33 153.89 44.33"/><path class="cls-1" d="M159.92,39.14l.88-2h1.45l-1,2Zm-.19,2.37h1.66v-.17a.64.64,0,0,0-.17-.45.84.84,0,0,0-.61-.18.92.92,0,0,0-.68.2.85.85,0,0,0-.2.6m1.08,2.92a3.69,3.69,0,0,1-1.46-.28,2.16,2.16,0,0,1-1-.82,2.8,2.8,0,0,1,.29-3.14,2.49,2.49,0,0,1,1.9-.68,2.58,2.58,0,0,1,1.8.59,2,2,0,0,1,.65,1.6v.83h-3.27a.86.86,0,0,0,.51.53,2.59,2.59,0,0,0,1,.16,4.54,4.54,0,0,0,.82-.07,3,3,0,0,0,.66-.18V44.1a4.59,4.59,0,0,1-1.93.33"/><path class="cls-1" d="M165.42,44.43a1.75,1.75,0,0,1-1.24-.37,1.61,1.61,0,0,1-.37-1.16V37.63h1.87V42.7a.37.37,0,0,0,.09.29.45.45,0,0,0,.28.07h.25l.24-.07v1.25l-.5.15a3.53,3.53,0,0,1-.62,0"/><path class="cls-1" d="M169.06,44.43a1.75,1.75,0,0,1-1.37-.48,1.89,1.89,0,0,1-.43-1.29V41h-.61V39.61h.61v-1l1.87-.45v1.41h1.09L170.15,41h-1v1.52a.51.51,0,0,0,.15.42.72.72,0,0,0,.46.12,1.69,1.69,0,0,0,.58-.1v1.25a3.38,3.38,0,0,1-1.26.22"/><path class="cls-1" d="M172.71,39.14l.88-2H175l-1,2Zm.42,4.19a1.13,1.13,0,0,0,.54-.11A1.29,1.29,0,0,0,174,43v-.59h-.9c-.41,0-.62.16-.62.49s.2.47.61.47m-.64,1.1a2.27,2.27,0,0,1-.83-.16,1.36,1.36,0,0,1-.61-.5,1.53,1.53,0,0,1-.23-.86,1.41,1.41,0,0,1,.5-1.15,2.28,2.28,0,0,1,1.5-.42H174v-.09a.42.42,0,0,0-.22-.4,1.78,1.78,0,0,0-.81-.13,5.21,5.21,0,0,0-1.61.25V39.84a4.74,4.74,0,0,1,.89-.23,6.72,6.72,0,0,1,1.1-.1,3.11,3.11,0,0,1,1.78.46,1.67,1.67,0,0,1,.65,1.45v2.91h-1.63L174.1,44a1.78,1.78,0,0,1-.64.35,3.3,3.3,0,0,1-1,.13"/><path class="cls-1" d="M176.79,44.33V39.62h1.8l0,.37a3.53,3.53,0,0,1,.74-.3,3.57,3.57,0,0,1,.9-.17v1.39a4.07,4.07,0,0,0-.56.07,5.6,5.6,0,0,0-.59.12,3.14,3.14,0,0,0-.47.17v3.06Z"/><path class="cls-1" d="M182.81,43.33a1.13,1.13,0,0,0,.54-.11,1.34,1.34,0,0,0,.38-.26v-.59h-.91c-.41,0-.61.16-.61.49s.2.47.6.47m-.63,1.1a2.23,2.23,0,0,1-.83-.16,1.38,1.38,0,0,1-.62-.5,1.49,1.49,0,0,1-.22-.85,1.41,1.41,0,0,1,.49-1.16,2.28,2.28,0,0,1,1.5-.41h1.23v-.09a.43.43,0,0,0-.23-.41,1.72,1.72,0,0,0-.81-.13,5.25,5.25,0,0,0-1.61.25V39.84a4.87,4.87,0,0,1,.9-.23,6.5,6.5,0,0,1,1.09-.09,3.11,3.11,0,0,1,1.78.45,1.65,1.65,0,0,1,.66,1.45v2.91h-1.63l-.09-.38a1.86,1.86,0,0,1-.64.35,3.4,3.4,0,0,1-1,.13"/><path class="cls-3" d="M43.4,25.33,15.8,49.85l0,0v0l0,0,.1-.11L38.78,25.4l0,0,0-.05L15.71.8l0,0L43.4,25.33"/><path class="cls-4" d="M13.69,3.14h0l0,0L30.9,25.34,13.63,47.53l0,0h0l21-22.23L13.69,3.14"/><path class="cls-5" d="M11.6,5.44l0,0Q18,15.4,24.46,25.34,18,35.25,11.6,45.14l0,0L27,25.33,11.6,5.44"/><path class="cls-6" d="M5,12.48H5l.07.22L9.28,25.15a.55.55,0,0,1,0,.38q-1,2.92-2,5.86L5.06,37.88l-.06.2.12-.16q2.67-6.21,5.36-12.42a.4.4,0,0,0,0-.15v0a.49.49,0,0,0,0-.19C8.67,21,6.89,16.84,5.09,12.69Z"/><path class="cls-7" d="M2.61,14.91v.15q1.34,5,2.68,10a.92.92,0,0,1,0,.52Q4,30.55,2.64,35.51l-.06.24h0l.09-.23,3.46-10a1.24,1.24,0,0,0,0-.16v0l0-.15q-1.75-5-3.49-10.06Z"/><path class="cls-8" d="M9.56,8l0,0h0l9.27,17.36L9.57,42.62h0l0,0L20.81,25.33,9.56,8"/><path class="cls-9" d="M7.17,9.87l.07.26q3.24,7.5,6.46,15a.49.49,0,0,1,0,.44L7.31,40.4l-.09.23,0,0,.11-.2,7.87-14.94a.34.34,0,0,0,0-.35q-4-7.55-8-15.09Z"/><path class="cls-10" d="M.19,17.44h0l0,.07c.25,1.35.49,2.71.74,4.06l.66,3.59a1.07,1.07,0,0,1,0,.44c-.12.68-.24,1.36-.37,2-.27,1.52-.55,3-.83,4.56l-.18,1h0L.24,33c.67-2.5,1.33-5,2-7.51a.69.69,0,0,0,0-.35c-.67-2.52-1.33-5-2-7.54Z"/></svg>