<svg id="Layer_1" data-name="Layer 1" xmlns="http://www.w3.org/2000/svg" viewBox="0 0 115.92 50.62"><defs><style>.cls-1{fill:#fff;}</style></defs><title>ABTL_logo_feher</title><path class="cls-1" d="M59.48,23.86V8.4a23.83,23.83,0,0,0-2.4,0V23.86ZM68.12,5.59V8.37h-4l.07.17a5.7,5.7,0,0,1,.61,2c0,.15,0,.3,0,.45v30.6H68c0,1.29,0,1.32,0,2.72H59.5V26.8a19.28,19.28,0,0,0-2.41,0V44.3c-4.4,0-4.4,0-8.55,0,0-1.06,0-1.59,0-2.71H51.7V11.05A5.5,5.5,0,0,1,56,5.73a5.86,5.86,0,0,1,1.26-.14H68.12Z"/><path class="cls-1" d="M78.76,26.76V41.6l2.38,0V26.76Zm0-2.88h2.38V8.33H78.76ZM73.35,41.65V8.33H70.22c0-1.15,0-2,0-2.74H81.1A5.47,5.47,0,0,1,86.43,10a6.24,6.24,0,0,1,.1,1.06c0,3,0,5.93,0,8.89a5.47,5.47,0,0,1-4,5.27c-.27.08-.55.13-.84.2l.19,0a5.49,5.49,0,0,1,4.51,4.33,5.17,5.17,0,0,1,.11,1c0,2.67,0,5.35,0,8a5.45,5.45,0,0,1-5.46,5.48H70.19V41.65Z"/><path class="cls-1" d="M94.1,8.38H90.89V5.63c.16,0,11.46,0,11.72,0V8.37H99.48V38.9a5.5,5.5,0,0,1-4.25,5.31,4.58,4.58,0,0,1-1.12.13Z"/><path class="cls-1" d="M112.62,41.56h3.14v2.77h-8.48c0-.16,0-38.48,0-38.73a3.31,3.31,0,0,1,1,.11A5.4,5.4,0,0,1,112.5,10a4.26,4.26,0,0,1,.12,1.06q0,15.1,0,30.21Z"/><path class="cls-1" d="M43.41,25.33,15.81,49.85l0,0v0l0,0,.1-.11L38.79,25.4l0,0,0-.05Q27.28,13.08,15.72.8l0,0L43.41,25.33"/><path class="cls-1" d="M13.7,3.14h0l0,0L30.91,25.34,13.64,47.53l0,0h0q10.49-11.12,21-22.23L13.7,3.14"/><path class="cls-1" d="M11.6,5.44l0,0Q18,15.4,24.47,25.34,18,35.25,11.61,45.14l0,0L27,25.33,11.6,5.44"/><path class="cls-1" d="M5,12.48H5l.07.22q2.12,6.22,4.24,12.44a.55.55,0,0,1,0,.38q-1,2.92-2,5.86L5.07,37.88l-.06.2.12-.16L10.48,25.5a.28.28,0,0,0,0-.15v0a.49.49,0,0,0,0-.19L5.1,12.69Z"/><path class="cls-1" d="M2.62,14.91v.15q1.33,5,2.68,10a1,1,0,0,1,0,.52Q4,30.55,2.65,35.51l-.06.24h0l.09-.23,3.46-10a1.24,1.24,0,0,0,0-.16v0l0-.15q-1.75-5-3.49-10.06Z"/><path class="cls-1" d="M9.57,8l0,0h0L18.8,25.34,9.58,42.62h0l0,0L20.82,25.33,9.57,8"/><path class="cls-1" d="M7.17,9.87l.08.26q3.23,7.5,6.46,15a.49.49,0,0,1,0,.44L7.32,40.4l-.09.23,0,0,.11-.2Q11.3,33,15.24,25.51a.32.32,0,0,0,0-.35L7.29,10.07Z"/><path class="cls-1" d="M.19,17.44h0l0,.07c.25,1.35.49,2.71.74,4.06.22,1.2.43,2.4.66,3.59a1.07,1.07,0,0,1,0,.44c-.12.68-.24,1.36-.37,2-.27,1.52-.55,3-.83,4.56-.06.34-.12.69-.19,1h0L.25,33c.67-2.5,1.33-5,2-7.51a.6.6,0,0,0,0-.35q-1-3.78-2-7.54Z"/></svg>