<svg id="Layer_1" data-name="Layer 1" xmlns="http://www.w3.org/2000/svg" viewBox="0 0 287.38 99.8"><defs><style>.cls-1{fill:#fff;}</style></defs><title>topo_logo</title><path class="cls-1" d="M208.89,50l0,.26h7.85c0-.73,0-1.46,0-2.19,0-2,0-3.91,0-5.85a1.49,1.49,0,0,0-1.37-1.79L214,42.33l-1.67,2.33c-1.09,1.51-2.19,3-3.27,4.57a1.75,1.75,0,0,0-.17.79m-29.49.3a.68.68,0,0,0-.08.48.77.77,0,0,0,.39.36,2.67,2.67,0,0,0,1.13.22h21.35V42.14l-.16,0h-4.19l-4.67,0c-2.65,0-4.81,0-6.8.08H186c-1.41,0-2.87.05-3.82,1.31l-.4.53c-1.12,1.45-2.17,2.82-2.07,4.76a3.22,3.22,0,0,1-.3,1.57m-5.27-6-.91-.38v7.45h3.5a1.13,1.13,0,0,0,.34,0l.32-.35c.83-.87,1.69-1.78,1.35-2.94a5.08,5.08,0,0,0-2-2.46,13,13,0,0,0-2.62-1.28M149.22,39V51.07h9.1V49.4c0-2.23,0-4.34,0-6.48,0-.12-.13-.36-.5-.67s-1-.83-1.51-1.25-1-.8-1.48-1.22A7.14,7.14,0,0,0,150.36,38h-.05l-.54,0c-.55,0-.55,0-.55,1m0-13c0,.91,0,1.81,0,2.72,0,1.81.05,3.62.1,5.4l0,1.15a2.07,2.07,0,0,0,.94,1.54A21,21,0,0,1,155.43,39c.54.3,1.11.61,1.68.9a1.76,1.76,0,0,0,.73.23H158l.05,0,0,0,0-.05,0,0a.43.43,0,0,0,0-.07l0-.07a.81.81,0,0,0,0-.11l0-.15s0-.06,0-.09a3.25,3.25,0,0,0,0-.33V27h0V21.22l1-.18c.56-.1,1.07-.19,1.57-.3a4.17,4.17,0,0,0,1.49-2.07,6.67,6.67,0,0,0-2.49-2.29l-1.52-.1c-1-.08-2-.15-3-.15-.5,0-.95,0-1.38.06-1.1.09-2.52.63-2.89,1.33a14.71,14.71,0,0,0-1.82,5.72c-.06.89-.1,1.8-.12,2.7m-7.12-4.89h2.55c1,0,1.75,0,2.47,0a1.85,1.85,0,0,0,.81-.38l.32-.2a3.47,3.47,0,0,0,1.39-2.36c.07-.26.14-.51.22-.74a1.33,1.33,0,0,0-.5-.68h-.25c-3.08,0-5.32,1.4-7,4.4M48.57,49.84a.73.73,0,0,0,0,.74.67.67,0,0,0,.59.36c.66,0,1.32,0,2,0h2.63a5.12,5.12,0,0,0-1.06-3.21c-.17-.28-.34-.55-.47-.8a1.14,1.14,0,0,0-.55-.09,1.66,1.66,0,0,0-1,.22A12.15,12.15,0,0,0,49,49.28l-.38.56m-37.25-11c0,1.33,0,2.67,0,4v4c0,1.16,0,2.31,0,3.47,0,.22,0,.45,0,.68a.53.53,0,0,0,0,.13h9V47.75c0-1.63,0-3.22,0-4.83a1.22,1.22,0,0,0-.49-.67c-.47-.4-1-.79-1.44-1.19s-1-.84-1.56-1.28a7.37,7.37,0,0,0-4.55-1.84H12.1a.81.81,0,0,0-.61.16,1.06,1.06,0,0,0-.17.75M11.43,23c-.24,3.68-.15,7.45-.07,11.09l0,1.2a2,2,0,0,0,.93,1.43A20.39,20.39,0,0,1,17.55,39c.52.28,1,.57,1.57.84a2.18,2.18,0,0,0,.86.29c.16,0,.45,0,.45-1.11v-18h.51c2.11,0,3.16-.74,3.5-2.46l-.29-.37a5.2,5.2,0,0,0-.86-.95,3.59,3.59,0,0,0-1.68-.91,34.71,34.71,0,0,0-3.85-.27,15.1,15.1,0,0,0-1.55.07c-1.15.12-2.59.64-3,1.37A13.22,13.22,0,0,0,11.43,23m-7.34-2H6.6c.87,0,1.57,0,2.2,0a3.5,3.5,0,0,0,1.32-.47l.07,0a3.27,3.27,0,0,0,1.49-2.34c.08-.28.16-.55.25-.8a1.43,1.43,0,0,0-.35-.72l-.85,0A6.2,6.2,0,0,0,8,17.25a8.94,8.94,0,0,0-3.86,3.81M17.62,15.2A9.42,9.42,0,0,0,24,12.09l-.29-.15a2.26,2.26,0,0,0-.92-.32c-3.68,0-7.61,0-12.76,0H.77a5.29,5.29,0,0,0-.54,0H.13v9a18.45,18.45,0,0,0,6.79-4c.07-.06.09-.27.11-.43a2.54,2.54,0,0,1,0-.29l0-.18.19,0,.4.05a6,6,0,0,0,.73.07h.16c1.5-.1,3-.22,4.51-.34l4.52-.35m6.92,2.08A13.44,13.44,0,0,0,31.63,21V11.59l-.58,0h-.68a4.33,4.33,0,0,0-.76,0c-.41.07-.83.12-1.25.17-1.77.21-3.44.41-4.7,1.93a1.82,1.82,0,0,0-.16,2.51c.22.26.48.51.73.76l.31.3m39-4.16c.49-.56,1-1.15,1.51-1.72H36.49V50.93h2.17L41,51c1.46,0,2.63,0,3.7-.08a4,4,0,0,0,2.45-1,35.88,35.88,0,0,0,3.39-4.46l.05-.07a1.77,1.77,0,0,0,.16-1.62,2,2,0,0,0-1.28-1.26l-3.44-1V20.72H49q1.11,0,2.19,0a2.17,2.17,0,0,0,1.19-.31A13.83,13.83,0,0,1,58.07,18a2,2,0,0,0,.73-.24,25.26,25.26,0,0,0,4.76-4.66m2,2.54a1.91,1.91,0,0,0,0-.42.84.84,0,0,0-.79-.67.76.76,0,0,0-.41.13l-.64.43-.55.36a8.39,8.39,0,0,0-1.52,1.24c-1.17,1.26-2.38,2.4-4.37,2.46a1.33,1.33,0,0,0-1.33,1.49c0,3.74,0,7.47,0,11.21,0,2.89,0,5.78,0,8.67A1.36,1.36,0,0,1,55,42a13.91,13.91,0,0,0-2.53,1.65.81.81,0,0,0-.17.64c.39,1,.81,2,1.22,2.92s.69,1.62,1,2.44a1.9,1.9,0,0,0,1.81,1.24c1.21,0,2.49,0,4.14,0h4.95c0-.07,0-.14,0-.21,0-.24,0-.44,0-.65V15.84a1.09,1.09,0,0,1,0-.18m6.08-.74a4.91,4.91,0,0,0-.94-.32l-.28-.07v36.1h9.48V36.16h4.48c1.34,0,2.66,0,4,0a3.53,3.53,0,0,0,1.33-.34,4.33,4.33,0,0,0,2.2-2.66,4.61,4.61,0,0,0-.3-3.67l-.22-.4c-1.42-2.54-1.42-2.54-4.6-2.54H79.86v-.83c0-.39,0-.76,0-1.13a4.44,4.44,0,0,0-1.76-4A6.07,6.07,0,0,1,76.83,19c-.19-.29-.38-.58-.58-.85l-.08-.09a4,4,0,0,0-.89-.93c-1.15-.74-2.36-1.46-3.69-2.2M94.84,33.39l4.43,2V11.42H71.2a3.73,3.73,0,0,0,2,3.33,9.49,9.49,0,0,1,4.21,3.43,4.78,4.78,0,0,0,4.47,2.57h.35c.68,0,1.41,0,2.3,0l1.83,0H89.9l-.05.26A6.2,6.2,0,0,0,90.73,25c.17.36.34.73.49,1.1l.7,1.66c.53,1.24,1.08,2.53,1.49,3.83a2.53,2.53,0,0,0,1.43,1.77m36.44-20.34c.47-.55.95-1.11,1.45-1.67h-28.6V51h2.16l2.33,0c1.39,0,2.52,0,3.55-.08a4.32,4.32,0,0,0,2.66-1.06,30,30,0,0,0,2.92-3.78l.52-.74a1.79,1.79,0,0,0,.11-1.6,1.89,1.89,0,0,0-1.15-1.23l-3.52-1V20.72h2.9c.74,0,1.35,0,1.9,0a3.78,3.78,0,0,0,1.79-.51,13.9,13.9,0,0,1,5.12-2.11l.16,0a2.34,2.34,0,0,0,.88-.29,25.25,25.25,0,0,0,4.82-4.71m1.9,37.18V15.55c0-.58-.34-1-.77-1a1.05,1.05,0,0,0-.59.22,47.76,47.76,0,0,0-3.69,3.09A3.44,3.44,0,0,1,126,19c-2.22.2-2.38.56-2.37,2.71,0,3.35,0,6.7,0,10q0,4.48,0,9a1.29,1.29,0,0,1-.89,1.28,19.7,19.7,0,0,0-2.63,1.71.76.76,0,0,0-.15.62c.39,1,.81,2,1.22,3,.33.8.67,1.61,1,2.42a1.86,1.86,0,0,0,1.72,1.22c1.25,0,2.57.05,4.28.05h4.94a.76.76,0,0,0,0-.15c0-.21,0-.39,0-.57m22.34-35a9.37,9.37,0,0,0,6.28-3,.78.78,0,0,0-.29-.42,1.55,1.55,0,0,0-.92-.2l-12.12,0H138v9.06h.11a19.16,19.16,0,0,0,6.62-4,.16.16,0,0,0,0-.08,1.25,1.25,0,0,0,.09-.37q0-.16.06-.3l.06-.18.17,0,.4.05a5.85,5.85,0,0,0,.72.07h.16c1.43-.1,2.87-.21,4.3-.33l4.74-.36m13,5.52,1,.3V11.59l-.51,0h-.67a4.22,4.22,0,0,0-.75,0c-.43.07-.87.12-1.3.17-1.71.2-3.33.38-4.6,1.81-1,1.09-1,1.95-.08,2.84A34,34,0,0,0,164.49,19a11.3,11.3,0,0,0,4,1.74M194.66,4.65A15.88,15.88,0,0,0,197.13.29H184.51l-2.3,7.78h.94l1,0h.2a9.36,9.36,0,0,0,2.95-.56,20,20,0,0,1,4.2-1.08,4.61,4.61,0,0,0,3.18-1.8M202,12.58c.09-.26.19-.53.28-.81H190.08c-4.73,0-8.34,0-11.72,0-1,0-1.16.32-1.27,1.23a7.86,7.86,0,0,1-.35,1.37,8.52,8.52,0,0,0-.26.86c0,.2-.1.39-.16.59a4.25,4.25,0,0,0-.18,2.41,13.38,13.38,0,0,1,2.51-.48,2.08,2.08,0,0,1,1,.3l.74.35-.82.06a10.83,10.83,0,0,0-4.84,1.79l-.58.37a1,1,0,0,0-.42.5c-.05.23-.1.45-.16.67a10.71,10.71,0,0,0-.4,2.35c0,2.29,0,4.6,0,6.9s0,4.6,0,6.85V40a1.76,1.76,0,0,0,.19.91l0,.09a6.42,6.42,0,0,0,3,3.1,4.43,4.43,0,0,1,1.12.76l.24.21a1.66,1.66,0,0,0,1,.31,1.58,1.58,0,0,0,1.38-.65c.1-.2.22-.4.33-.6a17.75,17.75,0,0,0,1.33-2.74,31.39,31.39,0,0,0,.89-3.28c.12-.51.24-1,.38-1.55l0-.17H194.7V27H182.75v-5.8h1.43l2.11,0h2.12c1,0,1.89,0,2.69.05h.36a7.69,7.69,0,0,0,5.74-2.52,1.93,1.93,0,0,1,1-.67,3.61,3.61,0,0,0,3.18-3.21,15.84,15.84,0,0,1,.68-2.2M239.41,23a3.43,3.43,0,0,0-2.76,2c-1.17,2.09-2.3,4.24-3.4,6.33L231.82,34c-.17.32-.34.65-.52,1l-.43.81L230.22,37l-.2-.33-.17-.28,0,0a1.4,1.4,0,0,1-.1-.16c-.07-.13-.14-.24-.2-.36l-2.3-4.3c-3.42-6.42-7-13.07-10.43-19.61a1.13,1.13,0,0,0-1.16-.75h0c-1,0-2.07,0-3.47,0h-4.2c-.21,0-.42,0-.62,0h-.1v0a.75.75,0,0,0,0,.2v3.33c0,8.61,0,17.52,0,26.29a1.6,1.6,0,0,0,.48,1c.75.64,1.52,1.23,2.34,1.86l.79.61c.22-.25.46-.49.7-.73a13.18,13.18,0,0,0,1.79-2.09c.33-.53.7-1.05,1.06-1.56,1.42-2,2.76-3.93,2.38-6.59a.31.31,0,0,1,.18-.29l.08-.07.19-.16.24.39.22.38,1.79,3.37c2.21,4.18,4.5,8.49,6.73,12.76a1.18,1.18,0,0,0,1.2.78h.09c1,0,1.89,0,2.77,0s1.8,0,2.64,0H233a1.25,1.25,0,0,0,1.27-.82c2.36-4.51,4.79-9.08,7.15-13.5l1.34-2.52a3,3,0,0,1,.31-.45l.14-.18.09-.14.52.19V50.7h9.46v-8c0-6.89,0-14,0-21a17,17,0,0,0-.34-2.85c-.07-.41-.14-.81-.2-1.23l-.75.09c-.62.07-1.16.13-1.69.22a5.71,5.71,0,0,0-3.84,2.57,1.43,1.43,0,0,0,0,1.81c.52.8,1.17,2,.73,3.06l-.16.39-.22-.36c-.14-.22-.29-.45-.43-.69a21.6,21.6,0,0,0-1.24-1.87,1.32,1.32,0,0,0-.9-.39h-.06c-.79.07-1.58.18-2.35.29s-1.57.22-2.36.3m8.43-5.62a1.91,1.91,0,0,0,.42-1.37,5,5,0,0,0-.34-1.13,4.73,4.73,0,0,1-.37-1.23c-.2-1.62-1.31-2-2.84-2.29l-.32,0c-.4,0-.66.2-.9.66-1.12,2.22-2.33,4.58-3.66,6.85a4.42,4.42,0,0,0-.37,3.1l1-.17c1.08-.18,2.11-.35,3.15-.57a2.37,2.37,0,0,0,.93-.63l.48-.45c.95-.87,1.93-1.78,2.81-2.74m5.35-2.28a18.89,18.89,0,0,0,.07-2.73c0-.34,0-.68,0-1h-2c-.73,0-1.29,0-1.82,0a1,1,0,0,0-.67.46c-.47.89.18,3.52.94,4.5a1.24,1.24,0,0,0,1,.56,2.55,2.55,0,0,0,.78-.17l.25-.09c.19-.07.38-.14.56-.19a1.91,1.91,0,0,0,.91-1.34m5.6,1L258.4,16l0,.06a.86.86,0,0,0-.18.36c0,2.05-.05,3.91,0,5.8a1.3,1.3,0,0,0,1.39,1.25h.2c.4-.05.8-.12,1.26-.19l.53-.09c-.05-.33-.09-.65-.13-1a18.7,18.7,0,0,0-.42-2.47,10.78,10.78,0,0,0-1.27-3,2,2,0,0,0-.95-.58m28.43,3.05v-8h-.06a.87.87,0,0,0-.23,0H275.73c-4.22,0-9.8,0-15.49,0-.4,0-1.18.67-1.18,1a8.2,8.2,0,0,0,.67,2.78,5.24,5.24,0,0,0,.53,1,6.36,6.36,0,0,1,.53,1c.39.94.73,1.91,1.07,2.85.14.4.28.81.43,1.21a1.7,1.7,0,0,0,1.61,1.3,2.34,2.34,0,0,0,1.2-.38l.24-.15a4.43,4.43,0,0,1,2-.87c1.3-.05,2.69-.07,4.49-.07h4.6a4.62,4.62,0,0,1,.65.05l.26,0,.2,0v5.38H268l-.06-.13a2.84,2.84,0,0,1-.19-1.33,1.63,1.63,0,0,0-.48-1.51,1.53,1.53,0,0,0-1-.42,2.56,2.56,0,0,0-1.18.45l0,0,.89.78-.19.37-.44-.11c-.21-.06-.37-.09-.51-.14a6,6,0,0,0-2-.36,4.51,4.51,0,0,0-3.28,1.31A5.19,5.19,0,0,0,258.14,29c.06,4.84,0,9.75,0,14.51,0,2,0,4.09,0,6.14v1.1h9.58V35.94h9.92v.21c0,.36,0,.72,0,1.06,0,.77,0,6.16,0,6.9a7.67,7.67,0,0,0,2.26,6.2,4.66,4.66,0,0,0,1.43.87,3.91,3.91,0,0,0,1.47.32,3,3,0,0,0,1.9-.7h0l1.13-.67.12-.28a3.81,3.81,0,0,1,.37-.76,6,6,0,0,0,.9-3.56c0-7.23,0-19.24,0-26.35"/><path class="cls-1" d="M118.73,84.22l0,10.36s0,.09,0,.1a.12.12,0,0,1-.09-.06l-6.38-10.49a.32.32,0,0,0-.31-.18h-2a.27.27,0,0,0-.19.08.26.26,0,0,0-.08.19v15a.26.26,0,0,0,.08.19.27.27,0,0,0,.19.08h2a.29.29,0,0,0,.19-.08.25.25,0,0,0,.07-.19l0-10.36s0-.09,0-.1a.12.12,0,0,1,.09.06l6.4,10.49a.33.33,0,0,0,.32.18h2a.27.27,0,0,0,.27-.27v-15A.27.27,0,0,0,121,84h-2a.27.27,0,0,0-.27.27m-13,1.69V84.22a.27.27,0,0,0-.27-.27h-10a.27.27,0,0,0-.27.27v15a.27.27,0,0,0,.27.27h10a.27.27,0,0,0,.27-.27V97.55a.25.25,0,0,0-.08-.18.22.22,0,0,0-.19-.08H97.88a.1.1,0,0,1-.11-.11V92.89c0-.08,0-.12.11-.12H103a.25.25,0,0,0,.19-.07.27.27,0,0,0,.08-.19V90.82a.27.27,0,0,0-.27-.27H97.88a.1.1,0,0,1-.11-.11V86.28a.1.1,0,0,1,.11-.11h7.58a.22.22,0,0,0,.19-.08.25.25,0,0,0,.08-.18M80.34,99.51h2a.29.29,0,0,0,.19-.08.25.25,0,0,0,.07-.19V94.53a.33.33,0,0,1,0-.15l1.64-1.92c0-.07.1-.06.16,0l4.4,6.84a.34.34,0,0,0,.31.18h2.34c.14,0,.22-.05.22-.16l0-.15-5.47-8.51a.14.14,0,0,1,0-.16l5.09-6.25a.38.38,0,0,0,.06-.17c0-.11-.07-.16-.22-.16H88.9a.41.41,0,0,0-.33.16l-5.78,6.82s-.06,0-.09,0,0,0,0-.09V84.22a.25.25,0,0,0-.07-.19.29.29,0,0,0-.19-.08h-2a.27.27,0,0,0-.19.08.25.25,0,0,0-.07.19v15a.25.25,0,0,0,.07.19.27.27,0,0,0,.19.08m-4.22-13.6V84.22a.27.27,0,0,0-.27-.27h-10a.27.27,0,0,0-.27.27v15a.27.27,0,0,0,.27.27h10a.27.27,0,0,0,.27-.27V97.55a.25.25,0,0,0-.08-.18.22.22,0,0,0-.19-.08H68.27a.1.1,0,0,1-.11-.11V92.89c0-.08,0-.12.11-.12h5.09a.25.25,0,0,0,.19-.07.27.27,0,0,0,.08-.19V90.82a.27.27,0,0,0-.27-.27H68.27a.1.1,0,0,1-.11-.11V86.28a.1.1,0,0,1,.11-.11h7.58a.22.22,0,0,0,.19-.08.25.25,0,0,0,.08-.18m-21,13.58h2a.27.27,0,0,0,.19-.08.26.26,0,0,0,.08-.19v-6a.3.3,0,0,1,0-.13l4.6-8.87a.2.2,0,0,0,0-.22.22.22,0,0,0-.21-.09H59.67a.34.34,0,0,0-.31.2l-3.14,6.2c0,.06-.09.06-.13,0L53,84.15a.33.33,0,0,0-.31-.2h-2.2c-.17,0-.25.06-.25.18a.36.36,0,0,0,.05.13l4.57,8.87a.23.23,0,0,1,0,.13v6a.25.25,0,0,0,.07.19.29.29,0,0,0,.19.08m-16.85,0h9.87a.27.27,0,0,0,.27-.27V97.55a.25.25,0,0,0-.08-.18.22.22,0,0,0-.19-.08H40.71a.1.1,0,0,1-.11-.11v-13a.26.26,0,0,0-.08-.19.27.27,0,0,0-.19-.08h-2a.29.29,0,0,0-.19.08.25.25,0,0,0-.07.19v15a.25.25,0,0,0,.07.19.29.29,0,0,0,.19.08m-4.22-13.6V84.22a.27.27,0,0,0-.27-.27h-10a.27.27,0,0,0-.19.08.26.26,0,0,0-.08.19v15a.26.26,0,0,0,.08.19.27.27,0,0,0,.19.08h10a.27.27,0,0,0,.27-.27V97.55a.25.25,0,0,0-.08-.18.22.22,0,0,0-.19-.08H26.21a.1.1,0,0,1-.11-.11V92.89c0-.08,0-.12.11-.12H31.3a.25.25,0,0,0,.19-.07.27.27,0,0,0,.08-.19V90.82a.27.27,0,0,0-.27-.27H26.21a.1.1,0,0,1-.11-.11V86.28a.1.1,0,0,1,.11-.11h7.58a.22.22,0,0,0,.19-.08.25.25,0,0,0,.08-.18M16.5,84.22v6.22a.1.1,0,0,1-.11.11H10.72c-.08,0-.11,0-.11-.11V84.22a.26.26,0,0,0-.08-.19.27.27,0,0,0-.19-.08h-2a.26.26,0,0,0-.19.08.22.22,0,0,0-.08.19v15a.22.22,0,0,0,.08.19.26.26,0,0,0,.19.08h2a.27.27,0,0,0,.19-.08.26.26,0,0,0,.08-.19V92.89c0-.08,0-.12.11-.12h5.67c.07,0,.11,0,.11.12v6.35a.22.22,0,0,0,.08.19.26.26,0,0,0,.19.08h2a.27.27,0,0,0,.19-.08.26.26,0,0,0,.08-.19v-15A.26.26,0,0,0,19,84a.27.27,0,0,0-.19-.08h-2a.26.26,0,0,0-.19.08.22.22,0,0,0-.08.19"/><path class="cls-1" d="M211.14,76.13h2a.27.27,0,0,0,.27-.27v-15a.25.25,0,0,0-.08-.18.22.22,0,0,0-.19-.08h-2a.22.22,0,0,0-.19.08.25.25,0,0,0-.08.18v15a.27.27,0,0,0,.27.27m-10,.18a5.63,5.63,0,0,0,4-1.43,5.2,5.2,0,0,0,1.5-4V68.06a.27.27,0,0,0-.08-.19.26.26,0,0,0-.19-.08h-5.13a.26.26,0,0,0-.19.08.27.27,0,0,0-.08.19V69.7a.26.26,0,0,0,.08.19.22.22,0,0,0,.19.08H204a.1.1,0,0,1,.11.11v1.38a2.42,2.42,0,0,1-.77,1.92,3,3,0,0,1-2.1.7,3.15,3.15,0,0,1-2.24-.81,2.78,2.78,0,0,1-.87-2.14V65.57a2.93,2.93,0,0,1,.82-2.15,3.37,3.37,0,0,1,4.35,0,2.63,2.63,0,0,1,.81,2v.11a.27.27,0,0,0,.08.19.26.26,0,0,0,.19.08h2a.26.26,0,0,0,.19-.08.27.27,0,0,0,.08-.19V65.3a4.66,4.66,0,0,0-.69-2.51A4.83,4.83,0,0,0,204,61a6.35,6.35,0,0,0-2.9-.64,6.24,6.24,0,0,0-2.93.66,4.65,4.65,0,0,0-2,1.84,5.42,5.42,0,0,0-.69,2.77V71a5.4,5.4,0,0,0,.69,2.75,4.69,4.69,0,0,0,2,1.86,6.24,6.24,0,0,0,2.93.66M185.06,59.15h1.47a.34.34,0,0,0,.31-.18l1.54-2.27c.05-.09.07-.17,0-.23a.22.22,0,0,0-.21-.1h-1.76a.35.35,0,0,0-.33.17l-1.22,2.29a.25.25,0,0,0,0,.23.2.2,0,0,0,.2.09M183.8,71.28l2.26-7.44c0-.06,0-.09.07-.09s.05,0,.07.09l2.29,7.44c0,.09,0,.14-.09.14h-4.52c-.07,0-.1,0-.08-.14m6.42,4.85h2.22c.17,0,.25-.07.25-.2a.31.31,0,0,0,0-.11l-4.85-15a.28.28,0,0,0-.29-.22h-2.78a.28.28,0,0,0-.29.22l-4.82,15a.25.25,0,0,0,0,.23.26.26,0,0,0,.2.08h2.22a.28.28,0,0,0,.29-.22l.74-2.38c0-.06.06-.09.11-.09h5.87s.08,0,.11.09l.73,2.38a.29.29,0,0,0,.29.22m-19.09.18a6.34,6.34,0,0,0,4-1.18A3.85,3.85,0,0,0,176.64,72a3.51,3.51,0,0,0-.68-2.19,4.83,4.83,0,0,0-1.62-1.37,25.83,25.83,0,0,0-2.53-1.09c-1-.35-1.72-.64-2.2-.87a3.16,3.16,0,0,1-1.06-.77,1.63,1.63,0,0,1-.36-1.09,1.73,1.73,0,0,1,.68-1.45,3.09,3.09,0,0,1,1.9-.51,3.52,3.52,0,0,1,2.37.73A2.22,2.22,0,0,1,174,65.1v.25a.29.29,0,0,0,.08.19.26.26,0,0,0,.19.07h2a.26.26,0,0,0,.19-.07.29.29,0,0,0,.08-.19V65a4.15,4.15,0,0,0-.71-2.39,4.7,4.7,0,0,0-2-1.61,7.06,7.06,0,0,0-3-.58,6,6,0,0,0-3.8,1.13,3.74,3.74,0,0,0-1.42,3.09,3.58,3.58,0,0,0,.65,2.19A4.69,4.69,0,0,0,168,68.19a21.08,21.08,0,0,0,2.55,1.09,22,22,0,0,1,2.1.89,3.51,3.51,0,0,1,1.08.79,1.57,1.57,0,0,1,.38,1.06,1.87,1.87,0,0,1-.69,1.49,3.14,3.14,0,0,1-2,.57,4.07,4.07,0,0,1-2.49-.67,2.06,2.06,0,0,1-.92-1.71v-.42a.24.24,0,0,0-.26-.26h-2a.25.25,0,0,0-.19.07.29.29,0,0,0-.08.19v.56a4,4,0,0,0,.7,2.35,4.55,4.55,0,0,0,2,1.56,7.62,7.62,0,0,0,3,.56M158.94,60.83l0,10.36c0,.06,0,.1-.05.1s-.06,0-.09-.05l-6.38-10.49a.32.32,0,0,0-.31-.18h-2a.25.25,0,0,0-.19.08.24.24,0,0,0-.07.18v15a.25.25,0,0,0,.07.19.29.29,0,0,0,.19.08h2.05a.29.29,0,0,0,.19-.08.25.25,0,0,0,.07-.19l0-10.36c0-.06,0-.09,0-.1a.1.1,0,0,1,.09.06L159,76a.31.31,0,0,0,.31.18h2a.25.25,0,0,0,.18-.08.22.22,0,0,0,.08-.19v-15a.27.27,0,0,0-.26-.26h-2a.24.24,0,0,0-.19.08.25.25,0,0,0-.08.18M140,74.13a3,3,0,0,1-2.23-.87A3.15,3.15,0,0,1,137,71V65.79a3.19,3.19,0,0,1,.84-2.31,3.31,3.31,0,0,1,4.47,0,3.19,3.19,0,0,1,.85,2.31V71a3.16,3.16,0,0,1-.85,2.29,3,3,0,0,1-2.24.87m0,2.22a6.13,6.13,0,0,0,3-.68,4.79,4.79,0,0,0,2-1.92,5.64,5.64,0,0,0,.72-2.87V65.81A5.51,5.51,0,0,0,145,63a4.82,4.82,0,0,0-2-1.91,6.76,6.76,0,0,0-5.91,0,5,5,0,0,0-2,1.91,5.61,5.61,0,0,0-.71,2.83v5.07a5.73,5.73,0,0,0,.7,2.87,4.79,4.79,0,0,0,2,1.92,6.18,6.18,0,0,0,3,.68m-8.47-15.78H120.73a.24.24,0,0,0-.19.08.25.25,0,0,0-.08.18v1.72a.29.29,0,0,0,.08.19.26.26,0,0,0,.19.07h3.94a.1.1,0,0,1,.11.11V75.86a.25.25,0,0,0,.07.19.29.29,0,0,0,.19.08h2a.27.27,0,0,0,.19-.08.26.26,0,0,0,.08-.19V62.92a.1.1,0,0,1,.11-.11h4.09a.24.24,0,0,0,.26-.26V60.83a.24.24,0,0,0-.07-.18.25.25,0,0,0-.19-.08M107.15,76.13h10a.27.27,0,0,0,.27-.27V74.17a.29.29,0,0,0-.08-.19.25.25,0,0,0-.19-.07h-7.27a.11.11,0,0,1-.09,0,.09.09,0,0,1,0-.09l7.49-10.71a.68.68,0,0,0,.11-.34V60.83a.25.25,0,0,0-.08-.18.22.22,0,0,0-.19-.08h-10a.24.24,0,0,0-.19.08.25.25,0,0,0-.08.18v1.69a.26.26,0,0,0,.08.19.24.24,0,0,0,.19.08h7.27a.11.11,0,0,1,.09.05.08.08,0,0,1,0,.08L107,73.64a.68.68,0,0,0-.11.33v1.89a.26.26,0,0,0,.08.19.27.27,0,0,0,.19.08m-6.36,0h2a.29.29,0,0,0,.19-.08.25.25,0,0,0,.07-.19v-15a.24.24,0,0,0-.07-.18.25.25,0,0,0-.19-.08h-2a.24.24,0,0,0-.19.08.24.24,0,0,0-.07.18v15a.25.25,0,0,0,.07.19.27.27,0,0,0,.19.08m-9.56-2.25H88.05a.1.1,0,0,1-.11-.11v-4.4a.1.1,0,0,1,.11-.11h3.14a2.72,2.72,0,0,1,1.87.61,2.44,2.44,0,0,1,0,3.39,2.6,2.6,0,0,1-1.84.62M88.05,62.79h3a2.74,2.74,0,0,1,1.85.59A2,2,0,0,1,93.59,65a1.94,1.94,0,0,1-.68,1.57,2.78,2.78,0,0,1-1.85.57h-3c-.07,0-.11,0-.11-.12V62.9a.1.1,0,0,1,.11-.11m6,5.22a3.25,3.25,0,0,0,2-3.24,3.81,3.81,0,0,0-1.31-3.16,5.89,5.89,0,0,0-3.73-1H85.63a.24.24,0,0,0-.19.08.25.25,0,0,0-.08.18v15a.26.26,0,0,0,.08.19.27.27,0,0,0,.19.08h5.6A5.84,5.84,0,0,0,94.91,75a3.84,3.84,0,0,0,1.41-3.21,3.73,3.73,0,0,0-2.26-3.67c-.09-.05-.09-.09,0-.14m-15.9-7.26-3.62,5.49a.08.08,0,0,1-.07,0,.12.12,0,0,1-.09,0l-3.62-5.49a.34.34,0,0,0-.31-.18h-2a.25.25,0,0,0-.19.08.24.24,0,0,0-.07.18v15a.25.25,0,0,0,.07.19.29.29,0,0,0,.19.08h2a.27.27,0,0,0,.19-.08.26.26,0,0,0,.08-.19V65.28a.09.09,0,0,1,0-.09s.06,0,.08,0l2.8,4.24a.34.34,0,0,0,.31.18h1a.33.33,0,0,0,.31-.18l2.78-4.27s0-.06.08,0a.08.08,0,0,1,.06.09v10.6a.25.25,0,0,0,.07.19.29.29,0,0,0,.19.08h2a.27.27,0,0,0,.19-.08.26.26,0,0,0,.08-.19v-15a.25.25,0,0,0-.08-.18.24.24,0,0,0-.19-.08h-2a.36.36,0,0,0-.31.18M55.62,71.28l2.27-7.44c0-.06,0-.09.07-.09s0,0,.06.09l2.29,7.44c0,.09,0,.14-.09.14H55.71c-.07,0-.1,0-.09-.14m6.43,4.85h2.22c.16,0,.24-.07.24-.2a.18.18,0,0,0,0-.11l-4.84-15a.29.29,0,0,0-.29-.22H56.58a.27.27,0,0,0-.29.22l-4.83,15c0,.1,0,.18,0,.23a.25.25,0,0,0,.2.08h2.22a.29.29,0,0,0,.29-.22l.73-2.38c0-.06.07-.09.11-.09h5.87c.05,0,.08,0,.11.09l.74,2.38a.28.28,0,0,0,.29.22m-24,0h9.87a.27.27,0,0,0,.19-.08.26.26,0,0,0,.08-.19V74.17a.29.29,0,0,0-.08-.19.26.26,0,0,0-.19-.07H40.48c-.07,0-.11,0-.11-.12v-13a.27.27,0,0,0-.26-.26h-2a.24.24,0,0,0-.19.08.25.25,0,0,0-.08.18v15a.26.26,0,0,0,.08.19.27.27,0,0,0,.19.08m-14,0H33.9a.27.27,0,0,0,.27-.27V74.17a.29.29,0,0,0-.08-.19.25.25,0,0,0-.19-.07H26.46c-.08,0-.11,0-.11-.12v-13a.25.25,0,0,0-.08-.18.24.24,0,0,0-.19-.08H24a.27.27,0,0,0-.26.26v15a.22.22,0,0,0,.08.19.25.25,0,0,0,.18.08m-11.51-17H14A.36.36,0,0,0,14.3,59l1.53-2.27a.2.2,0,0,0,0-.23c0-.07-.1-.1-.21-.1H13.9a.35.35,0,0,0-.34.17l-1.22,2.29a.27.27,0,0,0,0,.23.2.2,0,0,0,.2.09M11.25,71.28l2.27-7.44c0-.06,0-.09.07-.09s.05,0,.06.09l2.29,7.44c0,.09,0,.14-.09.14H11.34c-.07,0-.1,0-.09-.14m6.43,4.85H19.9c.16,0,.24-.07.24-.2a.18.18,0,0,0,0-.11l-4.84-15a.29.29,0,0,0-.29-.22H12.21a.27.27,0,0,0-.29.22l-4.82,15c0,.1,0,.18,0,.23a.25.25,0,0,0,.2.08H9.54a.28.28,0,0,0,.29-.22l.73-2.38c0-.06.07-.09.11-.09h5.87c.05,0,.08,0,.11.09l.74,2.38a.28.28,0,0,0,.29.22"/></svg>