<svg version="1.1" id="Layer_1" xmlns="http://www.w3.org/2000/svg" xmlns:xlink="http://www.w3.org/1999/xlink" x="0px" y="0px"
	 viewBox="0 0 36 36" style="background-color:red;" xml:space="preserve" fill="white">
<path class="st0" d="M18.4,14.8c0.4,0,0.7-0.3,0.7-0.7c0-0.4-0.3-0.7-0.7-0.7h0c-0.4,0-0.7,0.3-0.7,0.7C17.7,14.4,18,14.8,18.4,14.8
	z"/>
<path class="st0" d="M21.9,14.8c0.4,0,0.7-0.3,0.7-0.7c0-0.4-0.3-0.7-0.7-0.7h0c-0.4,0-0.7,0.3-0.7,0.7
	C21.2,14.4,21.5,14.8,21.9,14.8z"/>
<path class="st0" d="M25.5,14.8c0.4,0,0.7-0.3,0.7-0.7c0-0.4-0.3-0.7-0.7-0.7h0c-0.4,0-0.7,0.3-0.7,0.7
	C24.8,14.4,25.1,14.8,25.5,14.8z"/>
<path class="st0" d="M34.3,22.2c-0.1-0.3-0.2-0.5-0.4-0.8c1.3-2.2,2-4.7,2-7.3C36,6.3,29.7,0,21.9,0c-3.7,0-7.1,1.4-9.6,3.8
	c-0.5-0.5-1.2-0.8-2-0.8c-0.1,0-0.2,0-0.3,0c-0.8-1-2-1.6-3.2-1.6c-2,0-3.7,1.5-4,3.4C1.7,4.9,0.8,5.9,0.8,7.2
	c0,1.3,1.1,2.4,2.4,2.4h5.5c-0.5,1.4-0.7,2.9-0.7,4.5c0,2.9,0.9,5.5,2.3,7.8l-9.3,8.9c0,0,0,0,0,0c-1.2,1.2-1.2,3.1,0,4.3
	C1.5,35.7,2.3,36,3.1,36c0.8,0,1.6-0.3,2.2-0.9c0,0,0,0,0,0l8.9-9.3c2.2,1.5,4.9,2.3,7.8,2.3c2.2,0,4.3-0.5,6.3-1.5h5.5
	c1.3,0,2.3-1,2.3-2.3C36,23.3,35.3,22.4,34.3,22.2z M3.2,8.1c-0.5,0-1-0.4-1-1c0-0.5,0.4-1,1-1h0.4c0.4,0,0.7-0.3,0.7-0.7
	c0-1.5,1.2-2.7,2.7-2.7c0.9,0,1.8,0.5,2.3,1.3C9.3,4.4,9.7,4.5,10,4.4c0.1,0,0.3-0.1,0.4-0.1c0.4,0,0.7,0.1,1,0.4
	c-0.9,1-1.6,2.1-2.2,3.4L3.2,8.1L3.2,8.1z M4.2,34.1c-0.6,0.6-1.7,0.6-2.3,0c-0.6-0.6-0.6-1.7,0-2.3l6.4-6.1l2.1,2.1L4.2,34.1z
	 M11.3,26.7l-2-2l1.8-1.7c0.6,0.7,1.2,1.4,2,2L11.3,26.7z M9.3,14.1c0-7,5.7-12.7,12.7-12.7c7,0,12.7,5.7,12.7,12.7
	c0,2.2-0.6,4.4-1.7,6.3c-0.4-0.2-0.9-0.3-1.3-0.3c0,0-0.1,0-0.1,0c1.1-1.8,1.7-3.9,1.7-6c0-6.2-5-11.2-11.2-11.2
	c-1.8,0-3.6,0.4-5.2,1.3c-0.3,0.2-0.5,0.6-0.3,0.9c0.2,0.3,0.6,0.5,0.9,0.3c1.4-0.7,3-1.1,4.6-1.1c5.4,0,9.8,4.4,9.8,9.8
	c0,1.8-0.5,3.6-1.4,5.1c-0.7-0.4-1.4-0.7-2.3-0.7c-2,0-3.7,1.5-4,3.4c-1.1,0.1-1.9,1-2.1,2c0,0,0,0-0.1,0c-5.4,0-9.8-4.4-9.8-9.8
	c0-1.6,0.4-3.2,1.1-4.6c0.2-0.3,0-0.8-0.3-0.9c-0.3-0.2-0.8,0-0.9,0.3c-0.8,1.6-1.3,3.4-1.3,5.2c0,6.2,5,11.2,11.2,11.2
	c0.1,0,0.2,0,0.3,0c0.3,0.6,0.9,1.1,1.6,1.3c-0.6,0.1-1.2,0.1-1.9,0.1C15,26.7,9.3,21,9.3,14.1z M33.7,25.2h-9.4c-0.5,0-1-0.4-1-1
	c0-0.5,0.4-1,1-1h0.4c0.4,0,0.7-0.3,0.7-0.7c0-1.5,1.2-2.7,2.7-2.7c0.9,0,1.8,0.5,2.3,1.3c0.2,0.3,0.5,0.4,0.8,0.3
	c0.1,0,0.3-0.1,0.4-0.1c0.8,0,1.4,0.6,1.5,1.4c0,0.4,0.3,0.7,0.7,0.7c0.5,0,0.9,0.4,0.9,0.9C34.6,24.8,34.2,25.2,33.7,25.2z"/>
<path class="st0" d="M14.5,7.3c0.4,0,0.7-0.3,0.7-0.7c0-0.4-0.3-0.7-0.7-0.7h0c-0.4,0-0.7,0.3-0.7,0.7C13.8,7,14.1,7.3,14.5,7.3z"/>
</svg>
